<svg xmlns="http://www.w3.org/2000/svg" version="1.1" xmlns:xlink="http://www.w3.org/1999/xlink" width="2000" height="75" viewBox="0 0 2000 75"><svg xml:space="preserve" width="2000" height="75" data-version="2" data-id="lg_MUJFhJksr956Euc4vx" viewBox="0 0 555 75" x="0" y="0"><rect width="100%" height="100%" fill="transparent"></rect><path fill="#fff" d="M37.105 63.505q3.33 0 4.68-1.89 1.35-1.89 1.35-4.23v-41.22q0-2.25-1.35-4.14-1.35-1.89-4.68-1.89h-21.06l-.09 58.68q0 1.98-1.53 3.15t-3.78 1.17q-5.31 0-5.31-4.32V6.445q0-3.24 1.66-4.32 1.67-1.08 4.01-1.08h28.35q2.34 0 4.86.99 2.52.99 4.86 2.52h-.09q2.34 1.71 3.6 4.46 1.26 2.74 1.26 6.34v42.75q0 7.29-4.86 10.89-2.34 1.71-4.82 2.66-2.47.94-4.81.94h-15.12q-1.53 0-2.39-1.26-.85-1.26-.85-3.33 0-4.5 3.87-4.5Z"></path><rect width="48.51" height="72.09" x="-24.25" y="-36.05" fill="none" rx="0" ry="0" transform="translate(30.09 37.59)"></rect><path fill="#fff" d="M92.905 42.895h-6.93q-1.53 0-2.39-1.21-.85-1.22-.85-3.29 0-4.59 3.78-4.59h10.53q3.33 0 4.68-1.89 1.35-1.89 1.35-4.14v-11.61q0-2.25-1.35-4.14-1.35-1.89-4.68-1.89h-18.99v58.68q0 4.32-5.31 4.32t-5.31-4.32V6.445q0-3.24 1.66-4.32 1.67-1.08 4.01-1.08h26.19q2.34 0 4.86.99 2.52.99 4.86 2.52h-.09q2.34 1.71 3.6 4.46 1.26 2.74 1.26 6.34v13.14q0 7.29-4.86 10.89-.99.72-2.12 1.35-1.12.63-2.29 1.26l14.4 23.76q.27.45.54 1.17t.27 1.17q0 2.16-3.06 4.14v-.09q-2.07 1.26-3.51 1.26-2.07 0-3.33-2.07l.09.09Z"></path><rect width="52.29" height="72.36" x="-26.14" y="-36.18" fill="none" rx="0" ry="0" transform="translate(94.08 37.73)"></rect><path fill="#fff" d="M133.855 72.595q-3.33 0-4.5-1.71t-1.17-3.78V6.445q0-2.07 1.17-3.73 1.17-1.67 4.5-1.67h31.32q3.33 0 3.51 4.5.18 4.59-3.51 4.59h-26.37v53.37h27.99q3.33 0 3.42 4.41.18 4.68-3.42 4.68Zm27.99-37.26q0 3.15-2.21 5.31-2.2 2.16-5.35 2.16-3.06 0-5.22-2.16-2.16-2.16-2.16-5.31 0-3.15 2.16-5.31 2.16-2.16 5.22-2.16 3.15 0 5.35 2.16 2.21 2.16 2.21 5.31"></path><rect width="42.09" height="71.55" x="-21.05" y="-35.77" fill="none" rx="0" ry="0" transform="translate(149.73 37.32)"></rect><path fill="#fff" d="M214.045 31.375q2.34 0 4.86.99 2.52.99 4.86 2.61h-.09q2.34 1.62 3.6 4.41 1.26 2.79 1.26 6.39v12.33q0 7.29-4.86 10.89-2.34 1.71-4.82 2.66-2.47.94-4.81.94h-19.62q-2.34 0-4.82-.94-2.47-.95-4.81-2.66-4.86-3.6-4.86-10.89v-5.94q0-4.23 5.31-4.23 5.4 0 5.4 4.23v5.22q0 2.34 1.35 4.23 1.35 1.89 4.68 1.89h15.12q3.33 0 4.68-1.89 1.35-1.89 1.35-4.23v-10.89q0-2.25-1.35-4.18-1.35-1.94-4.68-1.94h-17.37q-4.68 0-9.63-3.42-4.86-3.78-4.86-10.89v-10.71q0-3.6 1.26-6.34 1.26-2.75 3.6-4.46h-.09q2.34-1.53 4.86-2.52 2.52-.99 4.86-.99h19.62q2.34 0 4.86.99 2.52.99 4.86 2.52h-.09q2.34 1.71 3.6 4.46 1.26 2.74 1.26 6.34v5.31q0 4.23-5.4 4.23-5.31 0-5.31-4.23v-4.5q0-2.25-1.35-4.14-1.35-1.89-4.68-1.89h-15.12q-3.33 0-4.68 1.89-1.35 1.89-1.35 4.14v9.18q0 2.34 1.35 4.19 1.35 1.84 4.68 1.84Z"></path><rect width="48.6" height="71.55" x="-24.3" y="-35.77" fill="none" rx="0" ry="0" transform="translate(204.74 37.32)"></rect><path fill="#fff" d="M276.775 31.375q2.34 0 4.86.99 2.52.99 4.86 2.61h-.09q2.34 1.62 3.6 4.41 1.26 2.79 1.26 6.39v12.33q0 7.29-4.86 10.89-2.34 1.71-4.82 2.66-2.47.94-4.81.94h-19.62q-2.34 0-4.82-.94-2.47-.95-4.81-2.66-4.86-3.6-4.86-10.89v-5.94q0-4.23 5.31-4.23 5.4 0 5.4 4.23v5.22q0 2.34 1.35 4.23 1.35 1.89 4.68 1.89h15.12q3.33 0 4.68-1.89 1.35-1.89 1.35-4.23v-10.89q0-2.25-1.35-4.18-1.35-1.94-4.68-1.94h-17.37q-4.68 0-9.63-3.42-4.86-3.78-4.86-10.89v-10.71q0-3.6 1.26-6.34 1.26-2.75 3.6-4.46h-.09q2.34-1.53 4.86-2.52 2.52-.99 4.86-.99h19.62q2.34 0 4.86.99 2.52.99 4.86 2.52h-.09q2.34 1.71 3.6 4.46 1.26 2.74 1.26 6.34v5.31q0 4.23-5.4 4.23-5.31 0-5.31-4.23v-4.5q0-2.25-1.35-4.14-1.35-1.89-4.68-1.89h-15.12q-3.33 0-4.68 1.89-1.35 1.89-1.35 4.14v9.18q0 2.34 1.35 4.19 1.35 1.84 4.68 1.84Z"></path><rect width="48.6" height="71.55" x="-24.3" y="-35.77" fill="none" rx="0" ry="0" transform="translate(267.46 37.32)"></rect><path fill="#fff" d="M304.225 41.455q-4.14 0-4.14-4.5.09-2.34 1.17-3.46 1.08-1.13 2.97-1.13h18.18q4.05 0 4.05 4.59.18 4.5-4.05 4.5Z"></path><rect width="26.43" height="9.09" x="-13.21" y="-4.54" fill="none" rx="0" ry="0" transform="translate(313.8 37.41)"></rect><path fill="#fff" d="M359.485 68.905q0 4.32-5.4 4.32-5.31 0-5.31-4.32v-58.77h-15.75q-3.24 0-3.42-4.59 0-4.5 3.42-4.5h42.21q3.42 0 3.24 4.5 0 4.59-3.24 4.59h-15.75Z"></path><rect width="48.93" height="72.18" x="-24.46" y="-36.09" fill="none" rx="0" ry="0" transform="translate(354.57 37.63)"></rect><path fill="#fff" d="M392.245 72.595q-3.33 0-4.5-1.71t-1.17-3.78V6.445q0-2.07 1.17-3.73 1.17-1.67 4.5-1.67h31.32q3.33 0 3.51 4.5.18 4.59-3.51 4.59h-26.37v53.37h27.99q3.33 0 3.42 4.41.18 4.68-3.42 4.68Zm27.99-37.26q0 3.15-2.21 5.31-2.2 2.16-5.35 2.16-3.06 0-5.22-2.16-2.16-2.16-2.16-5.31 0-3.15 2.16-5.31 2.16-2.16 5.22-2.16 3.15 0 5.35 2.16 2.21 2.16 2.21 5.31"></path><rect width="42.09" height="71.55" x="-21.05" y="-35.77" fill="none" rx="0" ry="0" transform="translate(408.12 37.32)"></rect><path fill="#fff" d="M486.835 58.105q0 7.29-4.86 10.89-2.35 1.71-4.82 2.66-2.48.94-4.81.94h-19.62q-2.35 0-4.82-.94-2.48-.95-4.81-2.66-2.35-1.8-3.6-4.45-1.26-2.66-1.26-6.44v-42.75q0-3.6 1.26-6.34 1.25-2.75 3.6-4.46h-.1q2.35-1.53 4.87-2.52 2.51-.99 4.86-.99h19.62q2.33 0 4.86.99 2.52.99 4.86 2.52h-.09q2.34 1.71 3.6 4.46 1.26 2.74 1.26 6.34v6.21q0 4.32-5.41 4.32-5.3 0-5.3-4.32v-5.4q0-2.25-1.36-4.14-1.35-1.89-4.67-1.89h-15.12q-3.34 0-4.69 1.89-1.34 1.89-1.34 4.14v41.22q0 2.34 1.34 4.23 1.35 1.89 4.69 1.89h15.12q3.32 0 4.67-1.89 1.36-1.89 1.36-4.23v-5.22q0-4.23 5.3-4.23 5.41 0 5.41 4.23Z"></path><rect width="48.6" height="71.55" x="-24.3" y="-35.77" fill="none" rx="0" ry="0" transform="translate(463.04 37.32)"></rect><path fill="#fff" d="M537.955 4.915q0-4.32 5.31-4.32 5.4 0 5.4 4.32v63.81q0 4.32-5.4 4.32-5.31 0-5.31-4.32Zm-27.36 63.81q0 4.32-5.4 4.32-5.31 0-5.31-4.32V4.915q0-4.32 5.31-4.32 5.4 0 5.4 4.32Zm21.06-33.39q0 3.15-2.16 5.31-2.16 2.16-5.31 2.16-3.06 0-5.22-2.16-2.16-2.16-2.16-5.31 0-3.15 2.16-5.31 2.16-2.16 5.22-2.16 3.15 0 5.31 2.16 2.16 2.16 2.16 5.31"></path><rect width="48.78" height="72.45" x="-24.39" y="-36.23" fill="none" rx="0" ry="0" transform="translate(524.77 37.32)"></rect></svg></svg>